<svg width="64" height="64" viewBox="0 0 64 64" xmlns="http://www.w3.org/2000/svg">
  <!-- Background Circle -->
  <circle cx="32" cy="32" r="30" fill="#007bff" stroke="#0056b3" stroke-width="2"/>
  
  <!-- HEIC Icon (Left side) -->
  <rect x="8" y="20" width="18" height="14" rx="2" fill="white" opacity="0.9"/>
  <rect x="10" y="22" width="14" height="10" rx="1" fill="#007bff"/>
  <circle cx="12" cy="24" r="1" fill="white"/>
  <rect x="14" y="28" width="8" height="1" fill="white" opacity="0.7"/>
  <rect x="14" y="30" width="6" height="1" fill="white" opacity="0.7"/>
  
  <!-- Arrow (Center) -->
  <path d="M28 30 L34 32 L28 34 Z" fill="white"/>
  <rect x="26" y="31" width="6" height="2" fill="white"/>
  
  <!-- JPG Icon (Right side) -->
  <rect x="38" y="20" width="18" height="14" rx="2" fill="white"/>
  <rect x="40" y="22" width="14" height="10" rx="1" fill="#28a745"/>
  <circle cx="42" cy="24" r="1" fill="white"/>
  <rect x="44" y="28" width="8" height="1" fill="white" opacity="0.8"/>
  <rect x="44" y="30" width="6" height="1" fill="white" opacity="0.8"/>
  
  <!-- Format Labels -->
  <text x="17" y="42" font-family="Arial, sans-serif" font-size="5" font-weight="bold" fill="white" text-anchor="middle">HEIC</text>
  <text x="47" y="42" font-family="Arial, sans-serif" font-size="5" font-weight="bold" fill="white" text-anchor="middle">JPG</text>
  
  <!-- Conversion Symbol -->
  <circle cx="32" cy="50" r="3" fill="white" opacity="0.3"/>
  <path d="M30 50 L34 50 M32 48 L34 50 L32 52" stroke="white" stroke-width="1" fill="none"/>
</svg> 